<?xml version="1.0" encoding="utf-8"?>
<!-- Generator: Adobe Illustrator 27.0.0, SVG Export Plug-In . SVG Version: 6.00 Build 0)  -->
<svg version="1.1" id="圖層_1" xmlns="http://www.w3.org/2000/svg" xmlns:xlink="http://www.w3.org/1999/xlink" x="0px" y="0px"
	 viewBox="0 0 595.28 841.89" style="enable-background:new 0 0 595.28 841.89;" xml:space="preserve">
<style type="text/css">
	.st0{fill:#FFFFFF;}
	.st1{fill:#F39800;}
	.st2{font-family:'FranklinGothic-DemiCond';}
	.st3{font-size:36.3166px;}
	.st4{font-size:30.2639px;}
	.st5{letter-spacing:-1.33;}
</style>
<g>
	<path class="st0" d="M457.07,394.15c-15.42-87.59-98.93-146.11-186.53-130.68C182.94,278.88,124.43,362.4,139.85,450
		c15.42,87.6,98.93,146.11,186.53,130.69C413.98,565.26,472.49,481.75,457.07,394.15z"/>
	<g>
		<path class="st1" d="M336.94,461.36c-1.42,0-2.58,1.15-2.58,2.58c0,1.42,1.16,2.58,2.58,2.58c1.42,0,2.57-1.16,2.57-2.58
			C339.51,462.51,338.36,461.36,336.94,461.36z"/>
		<circle class="st1" cx="329.2" cy="473.83" r="2.58"/>
		<path class="st1" d="M342.09,470.39c-1.41,0-2.58,1.16-2.58,2.57c0,1.44,1.17,2.59,2.58,2.59c1.42,0,2.58-1.15,2.58-2.59
			C344.67,471.54,343.51,470.39,342.09,470.39z"/>
		<path class="st1" d="M319.77,480.32c-0.91,0-1.65,0.57-1.94,1.38c-1.19,1.92-9.29,13.46-33.88,17.03
			c-26.14,3.77-48.44-8.94-50.4-10.11c-0.31-0.2-0.66-0.34-1.06-0.34c-1.14,0-2.07,0.93-2.07,2.07c0,0.68,0.35,1.25,0.85,1.63
			l-0.02,0.04c0.99,0.61,24.6,14.91,53.29,10.76c29-4.21,36.79-18.87,37.11-19.5l-0.03-0.01c0.13-0.28,0.22-0.56,0.22-0.89
			C321.84,481.25,320.91,480.32,319.77,480.32z"/>
		<path class="st1" d="M361.89,455.4c0.33-0.22,0.55-0.57,0.55-1c0-0.68-0.55-1.23-1.22-1.23c-0.26,0-0.47,0.09-0.67,0.22
			l-0.01-0.03l-4.9,3.27l0.02,0.03c-0.29,0.22-0.5,0.56-0.5,0.96c0,0.67,0.55,1.23,1.22,1.23c0.23,0,0.43-0.08,0.62-0.19l0.01,0.02
			l4.9-3.27L361.89,455.4z"/>
		<path class="st1" d="M366.21,460.19c-0.19,0-0.37,0.05-0.52,0.12l-7,2.15l0.01,0.02c-0.5,0.16-0.87,0.61-0.87,1.16
			c0,0.68,0.55,1.23,1.23,1.23c0.12,0,0.24-0.04,0.35-0.07l0.01,0.02l7.07-2.17l-0.02-0.05c0.55-0.12,0.97-0.59,0.97-1.18
			C367.43,460.74,366.88,460.19,366.21,460.19z"/>
		<path class="st1" d="M366.11,468.4L366.11,468.4l-0.02-0.01h-0.01c0,0,0,0-0.01,0h-6.48v0c-0.02,0-0.02,0-0.03,0
			c-0.68,0-1.22,0.55-1.22,1.23c0,0.67,0.54,1.23,1.22,1.23c0.01,0,0.01-0.01,0.03-0.01v0.02h6.52v-0.02
			c0.66-0.01,1.2-0.56,1.2-1.22C367.32,468.95,366.78,468.41,366.11,468.4z"/>
		<path class="st1" d="M314.31,408.07c-7.34-0.93-14.57,8.25-16.11,20.51c-1.55,12.25,3.15,22.94,10.5,23.87
			c7.34,0.93,14.56-8.25,16.12-20.51C326.36,419.69,321.66,409,314.31,408.07z M314.74,422.31c-1.05,2.79-4.16,4.21-6.95,3.17
			c-2.8-1.04-4.22-4.16-3.18-6.95c1.04-2.8,4.16-4.21,6.96-3.17C314.35,416.39,315.79,419.51,314.74,422.31z"/>
		<path class="st1" d="M439.82,379.32c-1.61-3.62-3.87-6.84-6.67-9.59c-1.48-1.74-3.38-3.15-5.43-4.32
			c-4.05-2.61-8.77-4.48-13.96-5.51c-8.01-2.06-15.72-2.19-22.98-0.96c-4.32-5.74-10.31-11.01-17.88-15.69l0,0
			c-17.2-10.7-42.8-18.71-76.06-23.83c-6.67-1.03-12.94-1.57-18.66-1.62c-14.39-0.13-25.79,2.9-34.04,9.02
			c-5.59-8.42-8.57-9.08-10.38-9.48c-7.86-1.75-26.34,5.01-33.54,12.26c-5.05,5.09-4.84,10.03-4.26,12.53
			c2.6,11.3,16.05,10.15,24.08,9.47c0.07,0,0.17-0.01,0.25-0.02c-0.26,2.01-0.56,4.26-0.84,6.29c-0.48,3.55-0.92,6.88-1.3,10
			c-2.98,0.47-5.72,1.08-8.16,1.83c-4.81,1.5-8.49,3.49-11.27,6.08c-3.56,3.27-5.55,7.71-5.55,12.49c-0.02,1.26,0.11,2.59,0.37,3.94
			c2.19,10.28,13.97,13.9,17.84,15.09c0.99,0.3,2.03,0.58,3.09,0.84c-3.31,7.2-5.53,13.66-7.11,18.25c-0.16,0.48-0.33,0.99-0.5,1.49
			c-1.64-0.16-3.67-0.32-5.9-0.24c-2.51-1.92-5.64-3.08-9.03-3.08c-0.04,0-0.07,0.01-0.11,0.01c-0.03,0-0.06-0.01-0.07-0.01
			c-8.22,0-14.87,6.65-14.87,14.87c0,1.85,0.36,3.61,0.97,5.25c-0.27,0.6-0.53,1.22-0.8,1.87c-2.76,7.03-2.05,16.53,1.68,26.71
			c0.99,2.69,2.18,5.42,3.58,8.17c0.06,0.1,0.11,0.2,0.16,0.3c0.6,1.15,1.23,2.3,1.89,3.46c0.17,0.3,0.34,0.6,0.51,0.89
			c0.74,1.25,1.51,2.5,2.33,3.75c0.02,0.01,0.02,0.03,0.03,0.04c0.76,1.15,1.54,2.27,2.34,3.38c0.23,0.31,0.46,0.62,0.7,0.94
			c0.62,0.84,1.24,1.66,1.88,2.47c0.23,0.29,0.46,0.58,0.69,0.88c0.87,1.07,1.75,2.13,2.65,3.16c0.02,0.02,0.03,0.03,0.05,0.05
			c0.89,1.02,1.81,2.02,2.75,3.01c0.24,0.25,0.48,0.5,0.73,0.75c0.77,0.8,1.56,1.59,2.37,2.38c0.2,0.2,0.41,0.4,0.62,0.6
			c2.05,1.96,4.18,3.84,6.38,5.64c0.2,0.16,0.39,0.31,0.59,0.47c1,0.8,2.02,1.6,3.05,2.37c0.12,0.08,0.23,0.17,0.35,0.26
			c2.38,1.76,4.83,3.43,7.36,5.01c0.11,0.07,0.22,0.14,0.33,0.21c3.87,2.39,7.89,4.57,12.05,6.52c0.04,0.01,0.07,0.03,0.1,0.05
			c4.23,1.98,8.62,3.73,13.14,5.23c11.83,3.94,24.52,6.2,37.69,6.55c22.72,0.61,42.79-3.12,59.86-10.89c0,0,0,0-0.01,0
			c5.6-2.54,10.86-5.53,15.8-8.93c0.02-0.02,0.05-0.03,0.07-0.05c3.2-2.21,6.23-4.6,9.14-7.16c0.16-0.13,0.3-0.26,0.46-0.39
			c2.78-2.49,5.43-5.14,7.93-7.95c0.24-0.27,0.48-0.53,0.71-0.79c2.41-2.75,4.68-5.65,6.82-8.69c0.28-0.4,0.56-0.81,0.84-1.21
			c0.92-1.34,1.81-2.69,2.67-4.09c0.13-0.22,0.28-0.42,0.4-0.64c0.94-1.53,1.82-3.1,2.69-4.69c0.29-0.53,0.58-1.07,0.87-1.62
			c0.66-1.24,1.29-2.52,1.92-3.8c0.22-0.47,0.46-0.92,0.68-1.39c3.64-7.77,6.64-16.22,8.94-25.35c6.29-21.3,13.28-35.93,19.11-46.28
			c0.27,0.08,0.53,0.18,0.82,0.24c6.38,1.23,12.13-0.68,15.75-5.25C442.81,395.46,443.31,387.2,439.82,379.32z M219.24,342
			c-5.25,0.45-13.17,1.12-13.9-2.06c-0.28-1.24,0.78-2.64,1.72-3.59c5.74-5.77,21.04-10.44,24.61-9.65
			c1.48,0.47,4.51,5.04,8.02,11.44c-4.79,7.06-6.1,15.34-6.1,22.58c0,4.1,0.42,7.91,0.9,11.05c-2.35,0.03-4.75,0.12-7.14,0.29
			c0.5-4.59,1.12-9.19,1.63-12.91c1.31-9.61,1.76-13.4,1.21-15.03C229.21,341.16,225.02,341.51,219.24,342z M214.21,399.53
			c-7.5-2.17-11.37-5.37-11.83-8.25c-0.16-0.81-0.24-1.54-0.24-2.24c0.03-2.55,0.94-4.4,2.71-6.12c3.95-3.89,12.78-5.89,22.1-6.63
			c3.19-0.25,6.44-0.35,9.58-0.33h0.44l1.78,0.01c3.02,0.12,6.03,0.35,9.04,0.67c1.87,0.19,3.74,0.4,5.61,0.66
			c11.92,1.62,23.73,4.5,35.16,7.94c0.8,0.24,1.08-0.83,0.28-1.1c-10.91-3.79-21.53-7.34-32.47-9.58c-1.52-0.31-3.05-0.6-4.59-0.85
			c-4.24-0.72-8.55-1.21-12.94-1.42c-0.53-3.2-1.05-7.24-1.05-11.56c0-6.08,1.01-12.63,4.2-18.31c0.85-1.52,1.85-2.97,3.03-4.34
			c5.61-6.46,15.4-11.33,32.8-11.34c5.12,0,10.91,0.43,17.41,1.38c33.47,4.85,57.49,12.58,72.93,22.02
			c8.01,4.91,13.65,10.2,17.26,15.78c-6.64,1.98-12.64,5.14-17.9,8.69c-8.2,5.54-14.56,12.05-18.51,16.64
			c-5.76-0.84-11.96-1.43-18.56-1.4l-0.53,0.16c-27.37,7.68-53.71,11.72-75.33,12.67c-1.65,0.07-3.27,0.13-4.86,0.16
			c-0.05,0.01-0.1,0.01-0.16,0.01c-1.62,0.04-3.21,0.06-4.77,0.06c-6.82,0-13-0.36-18.44-1.03
			C221.72,401.31,217.61,400.53,214.21,399.53z M251.03,411.01c-0.39,2.64-2.84,4.47-5.47,4.09c-2.64-0.39-4.47-2.83-4.09-5.47
			c0.15-0.99,0.59-1.86,1.21-2.55c0.71,0.01,1.39,0.03,2.11,0.03c1.62,0,3.29-0.02,4.98-0.06
			C250.73,408.08,251.25,409.51,251.03,411.01z M185.71,429.11c0.17-1.18,1.26-2.01,2.45-1.83c1.18,0.17,2,1.27,1.83,2.45
			c-0.17,1.18-1.27,2-2.45,1.83C186.35,431.39,185.54,430.3,185.71,429.11z M431.11,394.86c-1.55,1.86-3.87,2.06-5.77,1.82
			c-10.43-13.73-30.5-16.13-31.36-16.22v0.04c-0.06-0.01-0.13-0.04-0.19-0.04c-1.09,0-1.98,0.89-1.98,1.99
			c0,1.01,0.76,1.81,1.74,1.94l-0.01,0.04c-17.05,9.19-22.82,27.39-23.72,30.6c-0.13,0.26-0.19,0.55-0.19,0.86
			c0,1.16,0.94,2.09,2.08,2.09c0.92,0,1.68-0.58,1.96-1.39c1.88-0.54,5.26-1.19,6.89-0.19c0.53,0.32,0.82,0.81,0.91,1.52
			c0.11,0.86-0.09,1.59-0.61,2.22c-1.5,1.84-5.21,2.5-6.52,2.6l0.18,2.45l0,0l0,0h0.01c0.24-0.01,8.69-0.47,10.43,5.33l1.18-0.35
			l1.18-0.35c-1.11-3.7-4.01-5.48-6.8-6.33c0.85-0.46,1.64-1.05,2.25-1.79c0.96-1.17,1.34-2.54,1.15-4.08
			c-0.18-1.45-0.9-2.6-2.06-3.32c-2.07-1.28-5.21-0.94-7.4-0.45c2.1-6.23,8.87-21.7,25.61-27.94c4.93,1.34,11.78,3.87,17.35,8.47
			c-6.45,10.56-15.29,26.69-23.17,52.6c-0.31,0.69-0.82,1.63-1.02,2.47c-13.35,53.39-52.39,81.93-109.94,80.39
			c-54.5-1.47-80.94-35.16-87.74-45.45c-7.57-11.43-11.32-23.54-9.97-31.42c1.88,0.86,3.96,1.34,6.15,1.34
			c8.21,0,14.86-6.67,14.86-14.87c0-0.53-0.03-1.05-0.08-1.56c0.12,0.01,0.23,0.03,0.34,0.04c2.46,0.28,4.41,0.49,5.94-0.28
			c1.52-0.76,2.15-2.58,4.01-8.01c1.91-5.59,4.9-14.23,9.87-23.46c3.19,0.37,6.64,0.62,10.25,0.77c-1.6,2.12-3.02,4.6-4.12,7.4
			c-4.04,10.25-2.32,20.55,3.83,22.97c6.16,2.43,14.43-3.93,18.48-14.19c2.34-5.95,2.74-11.9,1.46-16.32
			c21.95-1.13,48.28-5.31,75.63-13.07l0.78-0.22c4.76,0.2,9.13,0.64,13.18,1.21c-0.53,0.69-0.97,1.28-1.27,1.68
			c-0.49,0.38-0.81,0.97-0.81,1.64c0,1.16,0.94,2.1,2.09,2.1c0.62,0,1.18-0.28,1.57-0.73l0.03,0.01
			c0.32-0.48,30.68-44.44,70.37-27.81c3.83,1.61,6.2,2.94,7.36,4.17c0.04-0.01,0.07-0.02,0.11-0.03c3.99,3.38,5.32,6.86,5.95,8.47
			C433.2,388.39,433.01,392.57,431.11,394.86z"/>
	</g>
</g>
<text transform="matrix(0.7297 0.1732 -0.2309 0.973 280.4264 353.8457)"><tspan x="0" y="0" class="st1 st2 st3">ONE</tspan><tspan x="-1.14" y="24.21" class="st1 st2 st4 st5">F UL L</tspan></text>
</svg>
